<svg width="140" height="37" fill="none" xmlns="http://www.w3.org/2000/svg"><g clip-path="url(#a)"><path d="m9 10 2.1 6.5H18l-5.6 4 2.2 6.5L9 23l-5.6 4 2.2-6.5-5.6-4h6.9L9 10Z" fill="#83B3D3"/></g><g clip-path="url(#b)"><path d="m33 10 2.1 6.5H42l-5.6 4 2.2 6.5-5.6-4-5.6 4 2.2-6.5-5.6-4h6.9L33 10Z" fill="#83B3D3"/></g><g clip-path="url(#c)"><path d="m57 10 2.1 6.5H66l-5.6 4 2.2 6.5-5.6-4-5.6 4 2.2-6.5-5.6-4h6.9L57 10Z" fill="#83B3D3"/></g><defs><clipPath id="a"><path fill="#fff" transform="translate(0 10)" d="M0 0h18v17H0z"/></clipPath><clipPath id="b"><path fill="#fff" transform="translate(24 10)" d="M0 0h18v17H0z"/></clipPath><clipPath id="c"><path fill="#fff" transform="translate(48 10)" d="M0 0h18v17H0z"/></clipPath></defs></svg>